<mxfile host="app.diagrams.net" modified="2023-12-29T12:00:08.451Z" agent="Mozilla/5.0 (Windows NT 10.0; Win64; x64) AppleWebKit/537.36 (KHTML, like Gecko) Chrome/120.0.0.0 Safari/537.36" etag="OE9sydTYR31kVQemNkB4" version="22.1.16" type="github">
  <diagram name="Página-1" id="lW9l5fCmu44EM4-M8ipz">
    <mxGraphModel dx="1571" dy="802" grid="1" gridSize="10" guides="1" tooltips="1" connect="1" arrows="1" fold="1" page="1" pageScale="1" pageWidth="6000" pageHeight="4500" math="0" shadow="0">
      <root>
        <mxCell id="0" />
        <mxCell id="1" parent="0" />
        <mxCell id="lbt80tdAz6W8DyTQuJgX-18" value="" style="rounded=0;whiteSpace=wrap;html=1;" vertex="1" parent="1">
          <mxGeometry x="262.86" y="780" width="497.14" height="200" as="geometry" />
        </mxCell>
        <mxCell id="lbt80tdAz6W8DyTQuJgX-12" style="edgeStyle=orthogonalEdgeStyle;rounded=0;orthogonalLoop=1;jettySize=auto;html=1;" edge="1" parent="1" source="lbt80tdAz6W8DyTQuJgX-1" target="lbt80tdAz6W8DyTQuJgX-2">
          <mxGeometry relative="1" as="geometry" />
        </mxCell>
        <mxCell id="lbt80tdAz6W8DyTQuJgX-1" value="" style="image;aspect=fixed;perimeter=ellipsePerimeter;html=1;align=center;shadow=0;dashed=0;spacingTop=3;image=img/lib/active_directory/generic_node.svg;" vertex="1" parent="1">
          <mxGeometry x="370" y="160" width="285.72" height="280" as="geometry" />
        </mxCell>
        <mxCell id="lbt80tdAz6W8DyTQuJgX-2" value="" style="sketch=0;points=[[0,0,0],[0.25,0,0],[0.5,0,0],[0.75,0,0],[1,0,0],[0,1,0],[0.25,1,0],[0.5,1,0],[0.75,1,0],[1,1,0],[0,0.25,0],[0,0.5,0],[0,0.75,0],[1,0.25,0],[1,0.5,0],[1,0.75,0]];outlineConnect=0;fontColor=#232F3E;fillColor=#C925D1;strokeColor=#ffffff;dashed=0;verticalLabelPosition=bottom;verticalAlign=top;align=center;html=1;fontSize=12;fontStyle=0;aspect=fixed;shape=mxgraph.aws4.resourceIcon;resIcon=mxgraph.aws4.documentdb_with_mongodb_compatibility;" vertex="1" parent="1">
          <mxGeometry x="910" y="145" width="310" height="310" as="geometry" />
        </mxCell>
        <mxCell id="lbt80tdAz6W8DyTQuJgX-3" value="" style="sketch=0;points=[[0,0,0],[0.25,0,0],[0.5,0,0],[0.75,0,0],[1,0,0],[0,1,0],[0.25,1,0],[0.5,1,0],[0.75,1,0],[1,1,0],[0,0.25,0],[0,0.5,0],[0,0.75,0],[1,0.25,0],[1,0.5,0],[1,0.75,0]];outlineConnect=0;fontColor=#232F3E;fillColor=#FF3399;strokeColor=#ffffff;dashed=0;verticalLabelPosition=bottom;verticalAlign=top;align=center;html=1;fontSize=12;fontStyle=0;aspect=fixed;shape=mxgraph.aws4.resourceIcon;resIcon=mxgraph.aws4.documentdb_with_mongodb_compatibility;" vertex="1" parent="1">
          <mxGeometry x="1230" y="145" width="70" height="70" as="geometry" />
        </mxCell>
        <mxCell id="lbt80tdAz6W8DyTQuJgX-4" value="" style="dashed=0;outlineConnect=0;html=1;align=center;labelPosition=center;verticalLabelPosition=bottom;verticalAlign=top;shape=mxgraph.weblogos.html5" vertex="1" parent="1">
          <mxGeometry x="505.72" y="840" width="110" height="110" as="geometry" />
        </mxCell>
        <mxCell id="lbt80tdAz6W8DyTQuJgX-5" value="" style="shape=image;html=1;verticalAlign=top;verticalLabelPosition=bottom;labelBackgroundColor=#ffffff;imageAspect=0;aspect=fixed;image=https://cdn1.iconfinder.com/data/icons/ionicons-fill-vol-2/512/logo-javascript-128.png;fontColor=#FFFF00;" vertex="1" parent="1">
          <mxGeometry x="365.72" y="830" width="128" height="128" as="geometry" />
        </mxCell>
        <mxCell id="lbt80tdAz6W8DyTQuJgX-6" value="" style="sketch=0;points=[[0,0,0],[0.25,0,0],[0.5,0,0],[0.75,0,0],[1,0,0],[0,1,0],[0.25,1,0],[0.5,1,0],[0.75,1,0],[1,1,0],[0,0.25,0],[0,0.5,0],[0,0.75,0],[1,0.25,0],[1,0.5,0],[1,0.75,0]];outlineConnect=0;fontColor=#232F3E;fillColor=#FF3399;strokeColor=#ffffff;dashed=0;verticalLabelPosition=bottom;verticalAlign=top;align=center;html=1;fontSize=12;fontStyle=0;aspect=fixed;shape=mxgraph.aws4.resourceIcon;resIcon=mxgraph.aws4.documentdb_with_mongodb_compatibility;" vertex="1" parent="1">
          <mxGeometry x="1230" y="225" width="70" height="70" as="geometry" />
        </mxCell>
        <mxCell id="lbt80tdAz6W8DyTQuJgX-7" value="" style="sketch=0;points=[[0,0,0],[0.25,0,0],[0.5,0,0],[0.75,0,0],[1,0,0],[0,1,0],[0.25,1,0],[0.5,1,0],[0.75,1,0],[1,1,0],[0,0.25,0],[0,0.5,0],[0,0.75,0],[1,0.25,0],[1,0.5,0],[1,0.75,0]];outlineConnect=0;fontColor=#232F3E;fillColor=#FF3399;strokeColor=#ffffff;dashed=0;verticalLabelPosition=bottom;verticalAlign=top;align=center;html=1;fontSize=12;fontStyle=0;aspect=fixed;shape=mxgraph.aws4.resourceIcon;resIcon=mxgraph.aws4.documentdb_with_mongodb_compatibility;" vertex="1" parent="1">
          <mxGeometry x="1230" y="304" width="70" height="70" as="geometry" />
        </mxCell>
        <mxCell id="lbt80tdAz6W8DyTQuJgX-8" value="" style="sketch=0;points=[[0,0,0],[0.25,0,0],[0.5,0,0],[0.75,0,0],[1,0,0],[0,1,0],[0.25,1,0],[0.5,1,0],[0.75,1,0],[1,1,0],[0,0.25,0],[0,0.5,0],[0,0.75,0],[1,0.25,0],[1,0.5,0],[1,0.75,0]];outlineConnect=0;fontColor=#232F3E;fillColor=#FF3399;strokeColor=#ffffff;dashed=0;verticalLabelPosition=bottom;verticalAlign=top;align=center;html=1;fontSize=12;fontStyle=0;aspect=fixed;shape=mxgraph.aws4.resourceIcon;resIcon=mxgraph.aws4.documentdb_with_mongodb_compatibility;" vertex="1" parent="1">
          <mxGeometry x="1230" y="385" width="70" height="70" as="geometry" />
        </mxCell>
        <mxCell id="lbt80tdAz6W8DyTQuJgX-9" value="SERVIDOR" style="text;html=1;strokeColor=none;fillColor=none;align=center;verticalAlign=middle;whiteSpace=wrap;rounded=0;fontStyle=1;fontSize=27;" vertex="1" parent="1">
          <mxGeometry x="420" y="430" width="180" height="70" as="geometry" />
        </mxCell>
        <mxCell id="lbt80tdAz6W8DyTQuJgX-10" value="NODE" style="text;html=1;strokeColor=none;fillColor=none;align=center;verticalAlign=middle;whiteSpace=wrap;rounded=0;fontStyle=1;fontSize=27;" vertex="1" parent="1">
          <mxGeometry x="422.86" y="480" width="180" height="70" as="geometry" />
        </mxCell>
        <mxCell id="lbt80tdAz6W8DyTQuJgX-21" style="edgeStyle=orthogonalEdgeStyle;rounded=0;orthogonalLoop=1;jettySize=auto;html=1;" edge="1" parent="1" source="lbt80tdAz6W8DyTQuJgX-11" target="lbt80tdAz6W8DyTQuJgX-18">
          <mxGeometry relative="1" as="geometry" />
        </mxCell>
        <mxCell id="lbt80tdAz6W8DyTQuJgX-27" style="edgeStyle=orthogonalEdgeStyle;rounded=0;orthogonalLoop=1;jettySize=auto;html=1;entryX=0.5;entryY=0;entryDx=0;entryDy=0;" edge="1" parent="1" source="lbt80tdAz6W8DyTQuJgX-11" target="lbt80tdAz6W8DyTQuJgX-22">
          <mxGeometry relative="1" as="geometry">
            <Array as="points">
              <mxPoint x="510" y="700" />
              <mxPoint x="1111" y="700" />
            </Array>
          </mxGeometry>
        </mxCell>
        <mxCell id="lbt80tdAz6W8DyTQuJgX-11" value="API Rest" style="text;html=1;strokeColor=none;fillColor=none;align=center;verticalAlign=middle;whiteSpace=wrap;rounded=0;fontStyle=1;fontSize=27;" vertex="1" parent="1">
          <mxGeometry x="420" y="540" width="180" height="70" as="geometry" />
        </mxCell>
        <mxCell id="lbt80tdAz6W8DyTQuJgX-13" value="MongoDB" style="text;html=1;strokeColor=none;fillColor=none;align=center;verticalAlign=middle;whiteSpace=wrap;rounded=0;fontStyle=1;fontSize=27;" vertex="1" parent="1">
          <mxGeometry x="1030" y="470" width="180" height="70" as="geometry" />
        </mxCell>
        <mxCell id="lbt80tdAz6W8DyTQuJgX-14" value="restaurantes" style="text;html=1;strokeColor=none;fillColor=none;align=center;verticalAlign=middle;whiteSpace=wrap;rounded=0;fontStyle=1;fontSize=27;" vertex="1" parent="1">
          <mxGeometry x="1300" y="145" width="180" height="70" as="geometry" />
        </mxCell>
        <mxCell id="lbt80tdAz6W8DyTQuJgX-15" value="fotos dos restaurantes" style="text;html=1;strokeColor=none;fillColor=none;align=center;verticalAlign=middle;whiteSpace=wrap;rounded=0;fontStyle=1;fontSize=27;" vertex="1" parent="1">
          <mxGeometry x="1300" y="224" width="180" height="70" as="geometry" />
        </mxCell>
        <mxCell id="lbt80tdAz6W8DyTQuJgX-16" value="apoios" style="text;html=1;strokeColor=none;fillColor=none;align=center;verticalAlign=middle;whiteSpace=wrap;rounded=0;fontStyle=1;fontSize=27;" vertex="1" parent="1">
          <mxGeometry x="1300" y="304" width="180" height="70" as="geometry" />
        </mxCell>
        <mxCell id="lbt80tdAz6W8DyTQuJgX-17" value="usuários" style="text;html=1;strokeColor=none;fillColor=none;align=center;verticalAlign=middle;whiteSpace=wrap;rounded=0;fontStyle=1;fontSize=27;" vertex="1" parent="1">
          <mxGeometry x="1300" y="385" width="180" height="70" as="geometry" />
        </mxCell>
        <mxCell id="lbt80tdAz6W8DyTQuJgX-19" value="Interface Visual" style="text;html=1;strokeColor=none;fillColor=none;align=center;verticalAlign=middle;whiteSpace=wrap;rounded=0;fontStyle=1;fontSize=27;" vertex="1" parent="1">
          <mxGeometry x="262.86" y="740" width="227.14" height="40" as="geometry" />
        </mxCell>
        <mxCell id="lbt80tdAz6W8DyTQuJgX-20" value="front end" style="text;html=1;strokeColor=none;fillColor=none;align=center;verticalAlign=middle;whiteSpace=wrap;rounded=0;fontStyle=1;fontSize=27;" vertex="1" parent="1">
          <mxGeometry x="260" y="780" width="130" height="50" as="geometry" />
        </mxCell>
        <mxCell id="lbt80tdAz6W8DyTQuJgX-22" value="" style="rounded=0;whiteSpace=wrap;html=1;" vertex="1" parent="1">
          <mxGeometry x="862.86" y="780" width="497.14" height="200" as="geometry" />
        </mxCell>
        <mxCell id="lbt80tdAz6W8DyTQuJgX-23" value="" style="dashed=0;outlineConnect=0;html=1;align=center;labelPosition=center;verticalLabelPosition=bottom;verticalAlign=top;shape=mxgraph.weblogos.html5" vertex="1" parent="1">
          <mxGeometry x="1105.72" y="840" width="110" height="110" as="geometry" />
        </mxCell>
        <mxCell id="lbt80tdAz6W8DyTQuJgX-24" value="" style="shape=image;html=1;verticalAlign=top;verticalLabelPosition=bottom;labelBackgroundColor=#ffffff;imageAspect=0;aspect=fixed;image=https://cdn1.iconfinder.com/data/icons/ionicons-fill-vol-2/512/logo-javascript-128.png;fontColor=#FFFF00;" vertex="1" parent="1">
          <mxGeometry x="965.72" y="830" width="128" height="128" as="geometry" />
        </mxCell>
        <mxCell id="lbt80tdAz6W8DyTQuJgX-25" value="Interface Visual" style="text;html=1;strokeColor=none;fillColor=none;align=center;verticalAlign=middle;whiteSpace=wrap;rounded=0;fontStyle=1;fontSize=27;" vertex="1" parent="1">
          <mxGeometry x="862.86" y="740" width="227.14" height="40" as="geometry" />
        </mxCell>
        <mxCell id="lbt80tdAz6W8DyTQuJgX-26" value="celular" style="text;html=1;strokeColor=none;fillColor=none;align=center;verticalAlign=middle;whiteSpace=wrap;rounded=0;fontStyle=1;fontSize=27;" vertex="1" parent="1">
          <mxGeometry x="860" y="780" width="130" height="50" as="geometry" />
        </mxCell>
        <mxCell id="lbt80tdAz6W8DyTQuJgX-32" value="" style="group" vertex="1" connectable="0" parent="1">
          <mxGeometry x="70" y="840" width="110" height="115" as="geometry" />
        </mxCell>
        <mxCell id="lbt80tdAz6W8DyTQuJgX-29" value="public" style="html=1;verticalLabelPosition=bottom;align=center;labelBackgroundColor=#ffffff;verticalAlign=top;strokeWidth=2;strokeColor=#0080F0;shadow=0;dashed=0;shape=mxgraph.ios7.icons.documents;" vertex="1" parent="lbt80tdAz6W8DyTQuJgX-32">
          <mxGeometry x="20" width="90" height="100" as="geometry" />
        </mxCell>
        <mxCell id="lbt80tdAz6W8DyTQuJgX-31" value="" style="verticalLabelPosition=bottom;html=1;verticalAlign=top;align=center;strokeColor=none;fillColor=#00BEF2;shape=mxgraph.azure.github_code;pointerEvents=1;" vertex="1" parent="lbt80tdAz6W8DyTQuJgX-32">
          <mxGeometry y="65" width="50" height="50" as="geometry" />
        </mxCell>
        <mxCell id="lbt80tdAz6W8DyTQuJgX-33" value="" style="group" vertex="1" connectable="0" parent="1">
          <mxGeometry x="710" y="170" width="110" height="115" as="geometry" />
        </mxCell>
        <mxCell id="lbt80tdAz6W8DyTQuJgX-34" value="models" style="html=1;verticalLabelPosition=bottom;align=center;labelBackgroundColor=#ffffff;verticalAlign=top;strokeWidth=2;strokeColor=#0080F0;shadow=0;dashed=0;shape=mxgraph.ios7.icons.documents;" vertex="1" parent="lbt80tdAz6W8DyTQuJgX-33">
          <mxGeometry x="20" width="90" height="100" as="geometry" />
        </mxCell>
        <mxCell id="lbt80tdAz6W8DyTQuJgX-35" value="" style="verticalLabelPosition=bottom;html=1;verticalAlign=top;align=center;strokeColor=none;fillColor=#00BEF2;shape=mxgraph.azure.github_code;pointerEvents=1;" vertex="1" parent="lbt80tdAz6W8DyTQuJgX-33">
          <mxGeometry y="65" width="50" height="50" as="geometry" />
        </mxCell>
        <mxCell id="lbt80tdAz6W8DyTQuJgX-36" value="" style="group" vertex="1" connectable="0" parent="1">
          <mxGeometry x="240" y="250" width="110" height="115" as="geometry" />
        </mxCell>
        <mxCell id="lbt80tdAz6W8DyTQuJgX-37" value="controllers&lt;br&gt;midlewares&lt;br&gt;routes" style="html=1;verticalLabelPosition=bottom;align=center;labelBackgroundColor=#ffffff;verticalAlign=top;strokeWidth=2;strokeColor=#0080F0;shadow=0;dashed=0;shape=mxgraph.ios7.icons.documents;" vertex="1" parent="lbt80tdAz6W8DyTQuJgX-36">
          <mxGeometry x="20" width="90" height="100" as="geometry" />
        </mxCell>
        <mxCell id="lbt80tdAz6W8DyTQuJgX-38" value="" style="verticalLabelPosition=bottom;html=1;verticalAlign=top;align=center;strokeColor=none;fillColor=#00BEF2;shape=mxgraph.azure.github_code;pointerEvents=1;" vertex="1" parent="lbt80tdAz6W8DyTQuJgX-36">
          <mxGeometry y="65" width="50" height="50" as="geometry" />
        </mxCell>
      </root>
    </mxGraphModel>
  </diagram>
</mxfile>
